<svg id="svg" version="1.1" xmlns="http://www.w3.org/2000/svg" style="display: block;" viewBox="0 0 1080 1080"><path d="M0 0 C4.43054103 0.61627826 7.82358243 2.26965845 11.75 4.375 C12.89984375 4.98085938 14.0496875 5.58671875 15.234375 6.2109375 C18 8 18 8 19 11 C18.05053711 13.25463867 18.05053711 13.25463867 16.52734375 15.91796875 C15.68212158 17.41191162 15.68212158 17.41191162 14.81982422 18.93603516 C14.19865723 20.00901855 13.57749023 21.08200195 12.9375 22.1875 C12.30859863 23.2914209 11.67969727 24.3953418 11.03173828 25.53271484 C9.03399376 29.02938818 7.02035666 32.51637077 5 36 C4.34757324 37.12647949 3.69514648 38.25295898 3.02294922 39.41357422 C0.01530504 44.59851271 -3.00435133 49.77617144 -6.0390625 54.9453125 C-6.80138184 56.25483887 -6.80138184 56.25483887 -7.57910156 57.59082031 C-8.47100092 59.10306478 -9.38179578 60.60448643 -10.31933594 62.08886719 C-12.37426793 65.38118278 -12.37426793 65.38118278 -13.09765625 69.12890625 C-11.42228719 71.98478448 -8.95374301 73.85408124 -6.4375 75.9375 C-0.09055761 81.47718064 4.00896183 87.56378314 8 95 C8.83144531 96.46759766 8.83144531 96.46759766 9.6796875 97.96484375 C19.55473164 116.26560964 21.64548309 139.90031466 16 160 C14.93801953 163.21534909 13.70866156 166.32583752 12.375 169.4375 C12.02236084 170.2637085 11.66972168 171.08991699 11.30639648 171.94116211 C8.33791683 178.66061872 4.77066569 184.39333194 0 190 C-0.68707031 190.84691406 -1.37414062 191.69382812 -2.08203125 192.56640625 C-15.81093987 208.7689921 -35.94895637 219.29920663 -57 222 C-81.28772293 223.31333613 -103.38127281 219.20265702 -122.125 202.625 C-123.75582658 201.0894982 -125.38097778 199.5479432 -127 198 C-128.14275391 196.98679687 -128.14275391 196.98679687 -129.30859375 195.953125 C-144.1545638 182.26498624 -152.08857872 161.5557945 -153.3203125 141.6796875 C-154.16735412 119.17645088 -146.98595164 97.73198965 -131.8125 80.9375 C-116.82878677 64.95418731 -97.77142655 53.03841934 -75.328125 51.796875 C-61.59706738 51.53528283 -47.87730508 52.99215914 -35 58 C-28.89208647 48.48602645 -23.11717663 38.81199631 -17.5 29 C-11.88282337 19.18800369 -6.10791353 9.51397355 0 0 Z M-115.21875 96.66796875 C-127.53204468 112.95551712 -131.08234519 129.35999834 -128.56640625 149.46484375 C-125.30520616 164.55549015 -116.7952465 178.17685766 -103.96875 186.828125 C-87.12450611 197.51077552 -69.17018363 201.13594332 -49.4375 196.9375 C-32.70925214 191.77000964 -19.70581541 180.95928845 -11 166 C-2.93480471 150.10624106 -1.64949662 133.07607462 -7 116 C-14.65825693 97.11773687 -26.73308984 85.92115794 -45.02050781 77.81445312 C-69.80666126 67.61630218 -98.44749392 76.50112385 -115.21875 96.66796875 Z " transform="translate(436,700)" style="fill: #000000;"/><path d="M0 0 C2.79890676 1.27502262 3.47567381 2.92096474 4.91870117 5.61450195 C5.46606934 6.61690918 6.0134375 7.61931641 6.57739258 8.65209961 C7.44630127 10.28671143 7.44630127 10.28671143 8.33276367 11.9543457 C9.57550919 14.23540957 10.82035964 16.51532771 12.06713867 18.79418945 C12.38530548 19.37906128 12.70347229 19.96393311 13.03128052 20.56652832 C16.42372473 26.78933102 19.99252074 32.90637244 23.58276367 39.0168457 C26.92573677 44.71570819 26.92573677 44.71570819 28.54077148 47.47485352 C29.43661812 49.00291721 30.33649446 50.52863184 31.24194336 52.05102539 C33.95776367 56.6710142 33.95776367 56.6710142 33.95776367 58.8918457 C34.84077148 58.55411133 35.7237793 58.21637695 36.63354492 57.8684082 C55.56612589 50.83223955 74.65519274 49.01961342 93.95776367 55.8918457 C95.09213867 56.29274414 96.22651367 56.69364258 97.39526367 57.10668945 C119.3483993 65.71331649 136.2953723 80.2388378 145.95776367 101.8918457 C154.98851392 124.09244005 155.49885673 148.62897888 146.13696289 170.83911133 C141.95665072 180.28159231 136.99091161 188.25216941 129.95776367 195.8918457 C129.43053711 196.5105957 128.90331055 197.1293457 128.36010742 197.7668457 C114.30617937 213.29445931 91.79004002 221.95671924 71.30151367 223.0949707 C47.29600427 223.38772082 26.25332777 215.70302003 8.95776367 198.8918457 C7.79954102 197.84383789 7.79954102 197.84383789 6.61791992 196.7746582 C-9.19318157 182.01763015 -17.10515093 160.06216007 -18.20239258 138.78637695 C-18.79866806 115.42793322 -9.90660226 95.011485 5.83666992 78.0949707 C8.50777789 75.32056022 11.19930633 72.57957337 13.95776367 69.8918457 C12.70661546 65.83508116 11.21251986 62.26702066 9.12182617 58.57543945 C8.5577002 57.57367676 7.99357422 56.57191406 7.41235352 55.53979492 C6.80858887 54.48034668 6.20482422 53.42089844 5.58276367 52.3293457 C4.96224121 51.23122559 4.34171875 50.13310547 3.70239258 49.00170898 C1.79365408 45.62822645 -0.12302449 42.25937916 -2.04223633 38.8918457 C-2.62553711 37.86687988 -3.20883789 36.84191406 -3.80981445 35.78588867 C-6.37314939 31.2837161 -8.94167616 26.78457802 -11.51879883 22.2902832 C-11.94451172 21.54230469 -12.37022461 20.79432617 -12.80883789 20.02368164 C-13.61847527 18.62428465 -14.44809755 17.23622373 -15.29907227 15.86157227 C-16.28571578 14.24698796 -17.17407743 12.57310952 -18.04223633 10.8918457 C-16.61690521 6.61585234 -13.5128016 5.62361984 -9.72973633 3.6418457 C-9.05233398 3.26543945 -8.37493164 2.8890332 -7.67700195 2.5012207 C-2.70411735 -0.14320669 -2.70411735 -0.14320669 0 0 Z M33.95776367 84.8918457 C33.19206055 85.31981445 32.42635742 85.7477832 31.63745117 86.1887207 C18.42918016 94.01243524 9.89381388 108.75896552 6.02026367 123.2668457 C2.52244564 141.28060854 5.75916838 158.48587517 15.95776367 173.8918457 C24.72100089 185.68067287 36.77131315 193.98355416 50.95776367 197.8918457 C51.75311523 198.11485352 52.5484668 198.33786133 53.36791992 198.56762695 C69.04900503 202.31578876 85.21921146 199.83213143 98.95776367 191.5793457 C113.24192364 182.5357018 122.49223547 171.01285747 127.95776367 154.8918457 C128.32514648 153.84383789 128.32514648 153.84383789 128.69995117 152.7746582 C133.05524907 137.44162313 129.82826106 120.02447804 122.42651367 106.2590332 C112.84297273 90.81321988 98.90729872 80.46809994 81.33276367 75.8918457 C64.41952742 72.70891194 48.47017821 75.71146846 33.95776367 84.8918457 Z " transform="translate(644.042236328125,699.108154296875)" style="fill: #000000;"/><path d="M0 0 C15.69391809 15.18370631 25.02782935 37.11589014 25.84716797 58.921875 C26.09149083 80.38302091 18.5670337 99.09493404 5.37451172 115.82373047 C4.96273682 116.34660645 4.55096191 116.86948242 4.12670898 117.40820312 C-8.11803652 132.54881064 -29.17990608 143.95279409 -48.51953125 146.02685547 C-70.41762855 148.1119112 -93.51954779 144.29536848 -111.33496094 130.5 C-114.95190196 127.45758341 -118.28773306 124.1665429 -121.62548828 120.82373047 C-122.29064453 120.22947266 -122.95580078 119.63521484 -123.64111328 119.02294922 C-136.70245778 107.16771986 -141.81492871 89.33615527 -145.62548828 72.82373047 C-168.39548828 72.49373047 -191.16548828 72.16373047 -214.62548828 71.82373047 C-214.62548828 64.56373047 -214.62548828 57.30373047 -214.62548828 49.82373047 C-180.47048828 49.32873047 -180.47048828 49.32873047 -145.62548828 48.82373047 C-143.97548828 42.55373047 -142.32548828 36.28373047 -140.62548828 29.82373047 C-136.47289246 20.5808559 -132.46592134 12.3058808 -125.62548828 4.82373047 C-124.82498047 3.93169922 -124.02447266 3.03966797 -123.19970703 2.12060547 C-110.58874173 -11.2386226 -92.77320197 -20.91434097 -74.62548828 -24.17626953 C-73.85591797 -24.31806641 -73.08634766 -24.45986328 -72.29345703 -24.60595703 C-45.46939993 -28.35309959 -19.48339515 -18.17195441 0 0 Z M-106.62548828 17.82373047 C-120.16677591 33.63347312 -124.08966175 50.42988569 -122.62548828 70.82373047 C-120.40619157 87.54243238 -110.69073969 101.55845796 -97.60986328 111.78466797 C-83.10644635 121.69407064 -65.57141697 125.3235611 -48.28710938 122.43261719 C-31.31610358 118.7936314 -16.69241416 109.03669676 -7.15283203 94.40185547 C1.40861052 79.95031561 4.67725332 63.34373195 0.91992188 46.82519531 C-3.95622988 28.3755032 -14.72501202 15.01229353 -31.05908203 5.39013672 C-56.21145803 -8.17202442 -86.63011924 -1.73492224 -106.62548828 17.82373047 Z " transform="translate(942.62548828125,479.17626953125)" style="fill: #000000;"/><path d="M0 0 C0.83015625 0.44859375 1.6603125 0.8971875 2.515625 1.359375 C19.71027834 11.676167 30.95481304 29.3116344 37 48 C37.99 52.29 38.98 56.58 40 61 C62.77 61.33 85.54 61.66 109 62 C109 69.26 109 76.52 109 84 C86.23 84.33 63.46 84.66 40 85 C38.68 90.28 37.36 95.56 36 101 C34.96261439 103.91628682 33.97458448 106.59788669 32.6875 109.375 C32.2397522 110.36512085 32.2397522 110.36512085 31.78295898 111.37524414 C29.13067376 117.05871248 25.93655193 122.10939291 22 127 C21.43023437 127.74378906 20.86046875 128.48757813 20.2734375 129.25390625 C8.15367571 144.0812744 -12.95558039 155.87904376 -32 158 C-56.49156945 159.73063456 -79.20030673 156.04734785 -98.52734375 139.88671875 C-101.02972943 137.60334251 -103.51703901 135.30447338 -106 133 C-106.93199219 132.20142578 -106.93199219 132.20142578 -107.8828125 131.38671875 C-121.98766417 118.69235225 -128.99332044 97.52543605 -130.8125 79.25 C-131.97564801 56.92745733 -125.33951656 34.31727038 -110.375 17.4375 C-108.92746934 15.94776004 -107.47015516 14.46741744 -106 13 C-105.46246094 12.3915625 -104.92492187 11.783125 -104.37109375 11.15625 C-91.72688889 -2.78723406 -70.43007825 -11.73325892 -51.8359375 -12.96875 C-32.71703711 -13.17942659 -16.73222364 -9.32141179 0 0 Z M-93 32 C-95.63065209 35.52556552 -97.87751739 39.15045619 -100 43 C-100.39832031 43.68835938 -100.79664063 44.37671875 -101.20703125 45.0859375 C-109.11610145 59.60071052 -109.53616946 76.82291838 -104.99609375 92.45703125 C-98.83263626 109.60486841 -88.02493404 121.90627251 -71.5625 129.75 C-69.7193706 130.52672908 -67.86515118 131.27774997 -66 132 C-65.18402344 132.32097656 -64.36804688 132.64195312 -63.52734375 132.97265625 C-48.59761146 137.93385013 -31.68668454 135.65057523 -17.53515625 129.4921875 C-1.45275994 121.42284046 9.06316257 108.7134373 15.125 91.875 C19.24126994 78.35011307 18.60764069 61.94922292 13 49 C12.649375 48.13632812 12.29875 47.27265625 11.9375 46.3828125 C5.28224126 31.54713156 -7.87574749 19.80825962 -23 14 C-48.02506752 5.50935209 -75.36299579 12.32907439 -93 32 Z " transform="translate(243,467)" style="fill: #000000;"/><path d="M0 0 C38.16674259 -0.99392559 73.36316825 14.48960704 101.2109375 39.828125 C106.76202956 45.11872892 111.91249041 50.40645569 116.5 56.56640625 C117.01248291 57.25379883 117.52496582 57.94119141 118.05297852 58.64941406 C132.12936931 77.92637707 141.98927543 101.30469458 144.625 125.12890625 C144.73457031 126.10859375 144.84414063 127.08828125 144.95703125 128.09765625 C148.59497554 165.73825312 137.74238041 203.43100998 113.69921875 232.7421875 C110.74675049 236.27003277 107.70814453 239.71507745 104.625 243.12890625 C103.88636719 243.95261719 103.14773438 244.77632812 102.38671875 245.625 C78.71545127 270.63362723 42.62472202 284.63029591 8.625 286.12890625 C7.25214844 286.19078125 7.25214844 286.19078125 5.8515625 286.25390625 C-32.46524955 287.09372679 -67.98550887 272.32482998 -95.91015625 246.52734375 C-124.80634223 218.4096604 -139.71377746 181.95167101 -140.38183594 141.80419922 C-140.28699744 104.68847726 -124.67095805 68.76508793 -98.8125 42.37890625 C-97.6757347 41.28606143 -96.52996505 40.20249876 -95.375 39.12890625 C-94.8078125 38.59136719 -94.240625 38.05382812 -93.65625 37.5 C-67.54239349 13.65450815 -34.9511267 1.89701839 0 0 Z M-74.375 51.12890625 C-75.24382812 51.84691406 -76.11265625 52.56492187 -77.0078125 53.3046875 C-99.95269173 73.05693063 -114.18402144 102.24309369 -117 132.19140625 C-117.13878016 134.1696544 -117.26469885 136.14886601 -117.375 138.12890625 C-117.41753906 138.89203125 -117.46007812 139.65515625 -117.50390625 140.44140625 C-118.30990302 171.39168239 -106.93792899 201.63001827 -85.98193359 224.43896484 C-64.08232597 247.46981929 -35.12359024 261.34906104 -3.375 263.12890625 C-2.3334375 263.18820312 -1.291875 263.2475 -0.21875 263.30859375 C13.67900859 263.65221965 27.48072416 261.58857127 40.625 257.12890625 C41.6665625 256.79246094 42.708125 256.45601562 43.78125 256.109375 C57.32202705 251.36675136 69.8733278 243.57847282 80.625 234.12890625 C81.45257812 233.4328125 82.28015625 232.73671875 83.1328125 232.01953125 C103.81047755 214.18741644 117.62424578 188.11073705 121.625 161.12890625 C121.73585938 160.38125 121.84671875 159.63359375 121.9609375 158.86328125 C124.19853643 140.59963594 122.29573941 122.5871377 116.625 105.12890625 C116.37363281 104.25492187 116.12226562 103.3809375 115.86328125 102.48046875 C111.5895284 88.92954508 103.00560501 75.68208688 93.625 65.12890625 C92.635 63.92621094 92.635 63.92621094 91.625 62.69921875 C81.37147409 50.59855031 68.61053602 42.31994249 54.625 35.12890625 C53.68140625 34.63648438 52.7378125 34.1440625 51.765625 33.63671875 C10.86898528 13.68411574 -40.008045 22.31981192 -74.375 51.12890625 Z " transform="translate(537.375,396.87109375)" style="fill: #000000;"/><path d="M0 0 C1.6854895 -0.02102783 1.6854895 -0.02102783 3.4050293 -0.04248047 C14.59036543 0.02112354 25.01082748 2.09133914 35.0625 7.0625 C36.14494995 7.59012939 36.14494995 7.59012939 37.24926758 8.12841797 C54.46249445 16.75138465 68.02403486 30.11922805 76.4375 47.375 C76.92734375 48.30957031 77.4171875 49.24414062 77.921875 50.20703125 C87.35032384 69.14712112 87.66986079 91.49353028 81.4375 111.375 C76.22216489 126.5137387 66.61285179 141.9052159 53.4375 151.375 C54.03249575 155.51498234 55.41491831 158.46834263 57.5078125 162.07421875 C58.15057129 163.18925781 58.79333008 164.30429687 59.45556641 165.453125 C59.79920227 166.04158203 60.14283813 166.63003906 60.49688721 167.23632812 C61.57368648 169.0816706 62.64024289 170.93260744 63.70458984 172.78515625 C67.02856576 178.55960784 70.38819024 184.31122192 73.80960083 190.02851868 C74.8854599 191.82849811 75.95510088 193.63202643 77.02294922 195.43676758 C78.36480385 197.6988383 79.7202767 199.95289533 81.09033203 202.19799805 C81.69216309 203.21547119 82.29399414 204.23294434 82.9140625 205.28125 C83.45111816 206.17134766 83.98817383 207.06144531 84.54150391 207.97851562 C85.4375 210.375 85.4375 210.375 84.82617188 212.54589844 C83.27551301 214.58836262 81.99184428 215.52027452 79.7421875 216.734375 C79.02675781 217.12753906 78.31132812 217.52070313 77.57421875 217.92578125 C76.82785156 218.32152344 76.08148438 218.71726562 75.3125 219.125 C74.55839844 219.53621094 73.80429687 219.94742188 73.02734375 220.37109375 C71.16944799 221.38235347 69.30416168 222.38001405 67.4375 223.375 C64.72082358 220.1051442 62.42487937 216.84415083 60.328125 213.1484375 C59.45426147 211.61896484 59.45426147 211.61896484 58.56274414 210.05859375 C57.94391357 208.96675781 57.32508301 207.87492188 56.6875 206.75 C55.35964502 204.42355961 54.03068759 202.09780604 52.69921875 199.7734375 C52.35608139 199.17392273 52.01294403 198.57440796 51.65940857 197.95672607 C49.11349872 193.52103041 46.51714508 189.11728593 43.89453125 184.7265625 C43.5250235 184.10735931 43.15551575 183.48815613 42.77481079 182.85018921 C41.32665301 180.42540312 39.87738942 178.00134531 38.4197998 175.58221436 C37.41298929 173.91113753 36.41144258 172.23689269 35.41015625 170.5625 C34.83531494 169.60730469 34.26047363 168.65210938 33.66821289 167.66796875 C32.4375 165.375 32.4375 165.375 32.4375 163.375 C31.11298828 163.88160156 31.11298828 163.88160156 29.76171875 164.3984375 C10.76689681 171.4577376 -8.18915862 173.17029512 -27.5625 166.375 C-29.02623047 165.88386719 -29.02623047 165.88386719 -30.51953125 165.3828125 C-51.98117207 157.33836711 -68.79971706 143.14421628 -78.66064453 122.39404297 C-88.41213748 100.56273633 -88.85599927 75.75964851 -80.5625 53.375 C-76.30659844 43.14948718 -70.65846089 34.78330717 -63.5625 26.375 C-63.01207031 25.70984375 -62.46164062 25.0446875 -61.89453125 24.359375 C-46.07609111 6.9550244 -22.69884438 0.19468072 0 0 Z M-24.5625 27.375 C-25.16916504 27.67003418 -25.77583008 27.96506836 -26.40087891 28.26904297 C-43.88530451 36.83782466 -55.20683277 48.8191184 -61.5625 67.375 C-66.18571824 81.98526736 -64.27991483 98.86261405 -57.875 112.5625 C-49.09986477 128.96724787 -35.44815351 139.99612171 -17.796875 145.5625 C0.06359619 150.04918841 17.25697775 146.72614326 32.98828125 137.57421875 C46.51725689 129.22322883 56.12280357 115.6744212 60.25 100.375 C64.06020636 81.7838207 60.8892222 64.34458711 50.4375 48.375 C41.19397723 35.92352836 27.01648813 25.80340293 11.4375 23.375 C-0.68333611 22.2465011 -13.46444478 21.81823316 -24.5625 27.375 Z " transform="translate(369.5625,158.625)" style="fill: #000000;"/><path d="M0 0 C16.87192425 13.92646362 27.89405322 34.20427066 30.75830078 55.94042969 C32.48725219 81.20233076 26.23767041 102.515338 9.75830078 121.94042969 C9.04544922 122.78992188 8.33259766 123.63941406 7.59814453 124.51464844 C-2.93647436 136.02502963 -17.37546703 143.66976662 -32.24169922 147.94042969 C-33.72863281 148.41416016 -33.72863281 148.41416016 -35.24560547 148.89746094 C-52.47079945 153.92052017 -71.44584371 150.15676367 -88.24169922 144.94042969 C-94.08602093 154.73034187 -99.75646491 164.60424782 -105.30419922 174.56542969 C-107.61213029 178.69300382 -109.92504413 182.81774629 -112.24169922 186.94042969 C-112.71623535 187.78702148 -113.19077148 188.63361328 -113.6796875 189.50585938 C-114.89436494 191.65937657 -116.12610555 193.80176853 -117.36669922 195.94042969 C-117.87922241 196.85622803 -117.87922241 196.85622803 -118.40209961 197.79052734 C-120.71842328 201.72065925 -120.71842328 201.72065925 -123.11523438 202.72729492 C-125.8504989 203.00144945 -126.8492433 202.34195331 -129.13232422 200.85058594 C-129.84130859 200.39619141 -130.55029297 199.94179688 -131.28076172 199.47363281 C-132.01037109 198.98830078 -132.73998047 198.50296875 -133.49169922 198.00292969 C-134.23677734 197.52146484 -134.98185547 197.04 -135.74951172 196.54394531 C-137.58781535 195.35376155 -139.41776689 194.15247645 -141.24169922 192.94042969 C-139.83175504 189.19986566 -138.13297312 185.77428838 -136.18701172 182.28417969 C-135.57768799 181.18879883 -134.96836426 180.09341797 -134.34057617 178.96484375 C-133.68276256 177.78995766 -133.02480042 176.61515472 -132.36669922 175.44042969 C-131.69233396 174.23184349 -131.01810022 173.0231839 -130.34399414 171.81445312 C-124.78230253 161.85480357 -119.14210888 151.94035208 -113.45507812 142.05175781 C-111.71153547 139.01792343 -109.97645333 135.97929638 -108.24169922 132.94042969 C-108.93134766 132.35777344 -109.62099609 131.77511719 -110.33154297 131.17480469 C-125.13199842 118.26247319 -137.95904986 99.98929078 -140.24169922 79.94042969 C-141.23354549 63.99559214 -141.50796608 47.5768683 -134.55419922 32.87792969 C-134.01375977 31.71608154 -134.01375977 31.71608154 -133.46240234 30.53076172 C-132.41460314 28.32012716 -131.33762729 26.12753698 -130.24169922 23.94042969 C-129.74025391 22.93882812 -129.23880859 21.93722656 -128.72216797 20.90527344 C-117.81199186 1.81966194 -98.17873916 -11.73711439 -77.30810547 -17.60302734 C-49.44563598 -24.65974434 -22.28148025 -17.76488249 0 0 Z M-97.84716797 19.44824219 C-98.63736328 20.27066406 -99.42755859 21.09308594 -100.24169922 21.94042969 C-101.22783203 22.91302734 -101.22783203 22.91302734 -102.23388672 23.90527344 C-113.16766907 35.36079229 -118.14104621 49.74388037 -118.61669922 65.44042969 C-118.08133987 82.46897522 -111.99584017 98.31082345 -100.00341797 110.54199219 C-86.48060765 122.28598871 -69.84323714 128.57802594 -52.01904297 128.24902344 C-34.12547906 126.78719143 -19.37941522 119.0676837 -7.28076172 105.78808594 C2.29349463 94.22790305 7.35667454 80.68934523 7.25830078 65.75292969 C7.25330566 64.74915283 7.24831055 63.74537598 7.24316406 62.71118164 C6.86550028 46.47294137 0.28459755 33.08078596 -10.75732422 21.26074219 C-14.85033824 17.43802155 -19.35818132 14.64504087 -24.24169922 11.94042969 C-25.08990234 11.46734375 -25.93810547 10.99425781 -26.81201172 10.50683594 C-49.79853611 -1.63494889 -78.78953733 1.10491555 -97.84716797 19.44824219 Z " transform="translate(766.24169921875,178.0595703125)" style="fill: #000000;"/></svg>